<?xml version="1.0" standalone="no"?>
<!DOCTYPE svg PUBLIC "-//W3C//DTD SVG 20010904//EN"
 "http://www.w3.org/TR/2001/REC-SVG-20010904/DTD/svg10.dtd">
<svg version="1.0" xmlns="http://www.w3.org/2000/svg"
 width="1285.000000pt" height="1224.000000pt" viewBox="0 0 1285.000000 1224.000000"
 preserveAspectRatio="xMidYMid meet">

<g transform="translate(0.000000,1224.000000) scale(0.100000,-0.100000)"
fill="#ffffff" stroke="none">
<path fill="#ef4444" d="M10911 11582 c-31 -31 -32 -38 -47 -539 l-7 -211 26 -26 c38 -38 98
-39 136 -1 27 26 28 45 56 602 l7 143 -30 30 c-42 41 -101 42 -141 2z"/>
<path fill="#ef4444" d="M9929 11315 c-36 -19 -55 -68 -43 -109 13 -47 295 -462 322 -475 66
-31 132 7 132 76 0 31 -19 68 -108 204 -59 91 -125 194 -147 228 -55 86 -99
107 -156 76z"/>
<path fill="#ef4444" d="M12042 10919 c-13 -5 -134 -93 -269 -196 -255 -194 -277 -217 -266
-276 7 -37 48 -67 90 -67 28 0 64 21 191 112 277 198 357 259 374 286 54 82
-28 178 -120 141z"/>
<path d="M10355 10439 c-366 -53 -698 -270 -907 -591 l-51 -78 -4004 0 c-3572
0 -4012 -2 -4079 -15 -185 -39 -330 -148 -409 -310 -71 -143 -65 194 -65
-3808 0 -3979 -5 -3658 60 -3692 53 -28 129 -10 160 37 13 20 16 458 20 3648
l5 3625 26 56 c37 79 90 133 167 171 l67 33 3973 3 c3787 2 3974 1 3967 -15
-19 -51 -45 -189 -56 -297 -6 -66 -12 -122 -13 -123 -1 -2 -1631 -3 -3622 -4
-1990 0 -3682 -4 -3759 -8 -177 -10 -230 -33 -276 -123 -19 -36 -19 -113 -19
-3337 l0 -3299 26 -31 c53 -63 141 -59 196 9 17 22 196 167 397 322 201 155
420 324 486 375 l119 93 609 0 c672 0 649 -2 681 64 20 42 20 67 2 111 -26 62
-51 70 -220 70 l-151 1 -7 34 c-7 30 -98 820 -98 843 0 4 167 7 370 7 288 0
372 -3 375 -13 2 -6 14 -185 26 -397 23 -415 27 -438 80 -465 42 -22 101 -19
134 7 55 43 55 47 31 471 -12 214 -19 390 -17 393 2 2 172 4 378 4 l373 0 0
-210 c0 -236 6 -266 62 -300 60 -37 124 -22 165 39 22 33 23 42 23 253 l0 218
418 -2 417 -3 -4 -213 c-4 -237 0 -259 56 -293 47 -30 105 -21 147 20 l31 31
10 228 10 227 383 3 c375 2 382 2 382 -18 0 -11 -11 -160 -24 -332 -23 -292
-29 -389 -27 -447 1 -12 16 -38 35 -57 28 -28 42 -34 75 -34 55 0 95 22 113
62 11 23 24 141 42 378 15 190 29 369 32 398 l6 52 414 0 c227 0 415 -3 417
-7 4 -8 -85 -751 -100 -832 l-8 -43 -117 1 c-139 2 -187 -9 -222 -50 -20 -24
-26 -41 -26 -81 0 -44 4 -54 34 -84 l34 -34 626 0 627 0 242 -187 c133 -103
352 -272 487 -376 138 -106 255 -203 268 -223 55 -83 169 -79 222 9 20 32 20
73 20 2728 l0 2696 84 6 c91 8 222 42 331 88 38 16 73 29 77 29 4 0 9 -1316
10 -2925 l3 -2925 31 -31 c56 -56 148 -47 191 18 17 26 18 177 15 3023 l-3
2996 103 105 c261 263 399 595 400 964 0 174 -20 301 -73 460 -184 552 -685
920 -1244 914 -60 -1 -137 -5 -170 -10z m263 -197 l43 -7 -110 -77 -109 -77
-107 56 c-116 60 -117 63 -29 84 102 23 238 32 312 21z m414 -118 c80 -41 175
-111 243 -177 l74 -72 -15 -170 c-8 -93 -17 -180 -20 -192 -3 -16 -38 -42
-122 -91 -64 -38 -132 -77 -150 -86 l-32 -17 -208 122 c-114 66 -208 122 -209
123 -1 1 -12 82 -24 181 l-23 179 25 18 c13 9 94 66 179 126 l155 109 48 -19
c27 -10 63 -26 79 -34z m-680 -213 c6 -5 48 -316 48 -353 0 -9 -79 -91 -175
-184 l-176 -167 -145 37 c-79 20 -155 41 -168 46 -25 9 -45 53 -122 276 l-38
110 49 75 c63 95 188 220 290 292 l80 56 175 -91 c96 -49 178 -93 182 -97z
m1219 -394 c16 -44 28 -81 25 -84 -2 -3 -26 8 -51 23 l-47 27 6 45 c3 25 6 59
6 76 1 29 1 30 15 12 8 -11 29 -56 46 -99z m-2062 -195 c11 -29 21 -60 20 -70
0 -9 -25 -39 -56 -67 l-55 -49 7 64 c7 69 33 198 43 215 3 5 9 -2 13 -15 3
-14 16 -49 28 -78z m1207 -53 c107 -60 194 -113 194 -117 -2 -50 -72 -427 -80
-432 -7 -4 -42 -10 -78 -14 -37 -3 -130 -13 -207 -21 -77 -8 -147 -15 -156
-15 -11 0 -45 61 -107 190 -51 105 -92 196 -92 204 0 14 308 315 323 316 5 0
96 -50 203 -111z m809 -23 l120 -73 -1 -139 c-2 -114 -7 -157 -27 -236 -25
-94 -88 -263 -105 -280 -4 -4 -73 -18 -152 -30 l-143 -21 -98 100 c-79 81 -96
104 -93 124 3 13 20 123 39 244 19 121 38 221 42 222 4 2 69 39 143 83 74 44
140 80 145 79 6 0 64 -33 130 -73z m-1695 -179 l165 -43 27 -55 c15 -29 64
-131 108 -226 l82 -171 -69 -114 c-80 -131 -55 -120 -304 -132 l-146 -8 -62
92 c-76 110 -131 225 -165 344 -40 135 -43 126 86 248 62 59 113 107 113 107
0 0 74 -19 165 -42z m-7036 -274 c3 -21 17 -139 31 -263 14 -124 34 -297 45
-384 11 -88 20 -170 20 -183 l0 -23 -419 0 -419 0 -6 28 c-33 160 -146 816
-146 843 0 18 19 19 444 19 l444 0 6 -37z m1266 30 c0 -5 11 -195 25 -423 14
-228 25 -425 25 -437 l0 -23 -485 0 c-289 0 -485 4 -485 9 0 8 -82 725 -94
827 -3 23 -2 44 1 48 9 9 1013 8 1013 -1z m1260 -438 l0 -445 -479 0 -480 0
-5 53 c-3 28 -10 147 -16 262 -6 116 -15 282 -20 370 -6 88 -10 170 -10 183
l0 22 505 0 505 0 0 -445z m1240 393 c0 -82 -20 -663 -26 -755 l-6 -83 -479 0
-479 0 0 445 0 445 495 0 495 0 0 -52z m1273 45 c2 -5 -6 -116 -19 -248 -22
-228 -22 -242 -6 -274 47 -95 175 -101 218 -10 7 13 22 134 33 269 12 135 24
251 26 258 4 10 125 12 581 10 l577 -3 23 -87 c103 -386 359 -704 710 -879
l120 -60 -72 -382 c-40 -210 -86 -447 -101 -527 l-29 -145 -389 -3 c-215 -1
-395 0 -401 2 -7 3 -4 59 12 183 42 334 67 563 62 569 -6 5 -228 -73 -241 -86
-5 -4 -26 -146 -48 -316 -22 -170 -42 -319 -45 -331 l-4 -23 -480 0 -479 0 4
33 c2 17 6 65 9 106 l5 75 -40 43 c-51 55 -70 101 -78 180 l-6 61 -54 -50 -54
-49 -15 -200 -16 -199 -448 0 -448 0 0 33 c0 85 21 781 26 845 l6 72 314 0
c346 0 359 2 389 60 31 60 10 135 -48 170 -30 19 -52 20 -339 20 l-308 0 0 78
c0 42 7 230 15 417 8 187 15 352 15 368 l0 27 509 0 c281 0 512 -3 514 -7z
m3150 -391 l98 -98 -24 -79 c-77 -257 -68 -236 -115 -257 -126 -56 -373 -91
-501 -71 l-54 8 -78 155 c-68 136 -76 157 -65 175 7 11 36 61 66 110 29 50 55
92 57 94 3 4 443 57 493 60 20 1 48 -22 123 -97z m367 -141 c0 -13 -114 -114
-117 -104 -2 5 3 28 10 53 11 40 17 46 47 51 54 10 60 10 60 0z m-1244 -213
c19 -38 34 -72 31 -74 -5 -6 -135 59 -196 99 l-55 35 55 6 c98 11 114 12 122
8 4 -2 23 -35 43 -74z m-8260 -470 c30 -156 97 -526 150 -823 52 -297 122
-688 154 -870 32 -181 71 -397 85 -480 15 -82 60 -334 100 -560 41 -225 93
-516 115 -645 23 -129 50 -284 61 -345 66 -371 101 -586 96 -598 -5 -14 -809
-637 -821 -637 -3 0 -6 1182 -6 2627 0 1444 3 2624 6 2620 3 -3 30 -133 60
-289z m8511 -2418 c-2 -1397 -5 -2541 -8 -2544 -2 -3 -153 110 -334 250 -182
140 -372 286 -423 325 -67 51 -92 75 -88 87 3 9 32 166 65 347 33 182 88 479
121 660 34 182 81 440 106 575 24 135 64 349 89 475 24 127 60 318 80 425 20
107 63 332 95 500 33 168 107 550 165 850 122 625 114 590 126 590 5 0 8
-1049 6 -2540z m-7432 2478 c2 -13 9 -66 15 -118 5 -52 28 -247 50 -434 22
-186 40 -347 40 -357 0 -18 -15 -19 -379 -19 -209 0 -382 4 -385 8 -3 5 -17
78 -31 163 -14 85 -51 288 -81 453 -30 164 -54 305 -54 312 0 12 68 14 410 14
l410 0 5 -22z m1224 -350 c12 -205 25 -419 28 -475 l6 -103 -450 0 -451 0 -6
43 c-3 23 -26 222 -51 442 -24 220 -47 415 -49 433 l-5 32 478 0 477 0 23
-372z m1178 -105 l6 -473 -451 0 -450 0 -6 63 c-5 60 -30 484 -41 712 -3 61
-8 125 -11 143 l-5 32 476 -2 477 -3 5 -472z m1193 420 c0 -32 -7 -231 -15
-443 -8 -212 -15 -400 -15 -417 l0 -33 -460 0 -460 0 0 475 0 475 475 0 475 0
0 -57z m-3447 -1228 c5 -44 28 -244 52 -445 24 -200 41 -368 39 -372 -3 -4
-160 -8 -349 -8 l-343 0 -5 23 c-6 24 -157 872 -157 881 0 4 170 5 378 4 l377
-3 8 -80z m1127 28 c0 -32 11 -233 25 -447 13 -215 22 -394 19 -398 -3 -4
-189 -8 -414 -8 l-410 0 -4 23 c-3 12 -10 67 -16 122 -35 315 -80 704 -85 733
l-6 32 446 0 445 0 0 -57z m1130 -397 l0 -454 -417 1 -418 2 -11 195 c-6 107
-17 296 -23 420 -6 124 -14 240 -17 258 l-5 32 446 0 445 0 0 -454z m1150 407
c0 -76 -20 -669 -26 -770 l-6 -93 -434 0 -434 0 0 213 c0 118 -3 322 -7 455
l-6 242 456 0 457 0 0 -47z m1130 15 c0 -28 -36 -486 -59 -755 -5 -56 -12
-107 -16 -113 -7 -11 -822 -13 -829 -1 -2 3 2 191 10 416 7 226 13 427 14 448
l0 37 440 0 440 0 0 -32z m1200 26 c0 -3 -14 -112 -31 -242 -17 -130 -42 -331
-57 -446 l-27 -210 -448 1 c-246 0 -449 2 -452 5 -2 2 2 83 10 179 25 294 34
408 46 567 l12 152 473 0 c261 0 474 -2 474 -6z m1026 -21 c-3 -16 -39 -212
-81 -438 -42 -225 -78 -417 -80 -425 -7 -22 -718 -20 -723 2 -3 14 92 788 104
856 l6 32 390 0 390 0 -6 -27z m-6642 -1131 c2 -4 12 -73 21 -152 9 -80 32
-272 51 -427 19 -155 34 -287 34 -293 0 -7 -100 -9 -317 -8 l-318 3 -32 185
c-77 433 -119 691 -114 695 8 8 670 5 675 -3z m1070 -44 c6 -57 46 -765 46
-810 l0 -28 -380 0 -379 0 -5 33 c-3 17 -15 115 -26 217 -11 102 -32 281 -46
399 -14 117 -23 220 -20 227 4 12 77 14 405 14 l400 0 5 -52z m1066 -393 l0
-445 -384 0 -385 0 -5 53 c-6 56 -46 764 -46 810 l0 27 410 0 410 0 0 -445z
m1113 438 c2 -5 -2 -188 -9 -408 -7 -220 -13 -417 -13 -437 l-1 -38 -420 0
-420 0 0 445 0 445 429 0 c237 0 432 -3 434 -7z m1077 -10 c0 -31 -61 -807
-66 -841 l-5 -33 -390 2 -389 3 0 45 c0 98 22 817 26 829 3 9 94 12 414 12
384 0 410 -1 410 -17z m1140 2 c0 -16 -97 -788 -105 -841 l-5 -30 -423 0 -422
1 3 85 c5 131 60 778 67 790 4 7 154 10 446 10 384 0 439 -2 439 -15z m960 -1
c0 -9 -32 -188 -71 -398 -38 -209 -73 -399 -77 -421 l-8 -40 -324 -6 c-179 -3
-328 -3 -333 1 -7 6 8 130 78 673 14 104 27 193 30 198 4 5 152 9 356 9 316 0
349 -2 349 -16z m-6286 -1151 c11 -68 96 -836 93 -839 -5 -6 -558 -6 -564 -1
-5 6 -28 138 -112 637 -18 102 -34 197 -37 213 l-6 27 310 0 310 0 6 -37z
m6078 32 c3 -3 -10 -85 -29 -183 -18 -97 -54 -291 -78 -431 -25 -140 -47 -256
-48 -257 -5 -6 -588 -6 -593 -1 -5 5 92 836 101 865 3 9 77 12 323 12 175 0
321 -2 324 -5z"/>
<path d="M8980 8465 c-400 -103 -762 -279 -1077 -523 -126 -99 -320 -287 -414
-404 -65 -82 -79 -105 -79 -134 0 -52 45 -94 100 -94 47 0 50 3 168 142 336
397 873 709 1434 833 63 14 83 23 103 47 56 66 9 169 -77 168 -13 -1 -84 -16
-158 -35z"/>
<path d="M9250 7969 c-484 -124 -909 -355 -1192 -647 -71 -73 -78 -83 -78
-120 0 -54 42 -92 102 -92 37 0 47 7 131 88 171 163 331 272 562 383 165 78
292 124 510 185 178 49 206 66 208 126 2 62 -46 109 -106 107 -12 0 -74 -14
-137 -30z"/>
<path fill="#ef4444" d="M11941 9793 c-47 -40 -41 -131 11 -153 25 -10 468 -60 534 -60 73 0
119 60 95 123 -20 52 -48 60 -295 84 -288 27 -318 28 -345 6z"/>
</g>
</svg>
